<svg xmlns="http://www.w3.org/2000/svg" xmlns:xlink="http://www.w3.org/1999/xlink" id="Layer_1" x="0px" y="0px" viewBox="0 0 656.3 191" style="enable-background:new 0 0 656.3 191;" xml:space="preserve"><style type="text/css">	.st0{fill:#F78F25;}</style><g>	<path class="st0" d="M313.8,9.5v137.8H176V9.5H313.8 M323.3,0H166.4v156.9h156.9V0L323.3,0z"></path></g><g>	<polygon class="st0" points="133.9,0 110.9,0 0,0 0,34.3 0,46 0,111.1 0,120 0,157.1 156.9,157.1 156.9,111.1 46,111.1 46,46   110.9,46 110.9,101.6 156.9,101.6 156.9,46 156.9,0  "></polygon></g><g>	<polygon class="st0" points="499.3,0.1 499.3,36.7 489.9,36.7 489.9,0.1 489.9,0.1 332.9,0.1 332.9,0.2 332.8,0.2 332.8,157.1   378.8,157.1 378.8,46.1 388.3,46.1 388.3,157.1 434.3,157.1 434.3,46.1 443.9,46.1 443.9,157.1 489.9,157.1 489.9,46.1 610.3,46.1   610.3,55.6 499.3,55.6 499.3,55.6 499.3,157 545.3,157 545.3,101.6 610.3,101.6 610.3,101.6 656.3,101.6 656.3,0.1  "></polygon></g><g>	<g>		<rect x="240.1" y="73.7" class="st0" width="9.5" height="9.5"></rect>	</g>	<g>		<rect x="221.1" y="73.7" class="st0" width="9.5" height="9.5"></rect>	</g>	<g>		<rect x="259.2" y="73.7" class="st0" width="9.5" height="9.5"></rect>	</g>	<g>		<rect x="240.1" y="92.7" class="st0" width="9.5" height="9.5"></rect>	</g>	<g>		<rect x="240.1" y="54.6" class="st0" width="9.5" height="9.5"></rect>	</g></g><g>	<g>		<path class="st0" d="M2.7,186.1c0,0.2,0.1,0.4,0.2,0.5l1.5,1.5c0.1,0.2,0.3,0.2,0.6,0.2h2.1c0.3,0,0.4-0.1,0.6-0.2l1.5-1.5   c0.2-0.1,0.2-0.3,0.2-0.5v-0.8c0-0.4,0.1-0.7,0.4-0.9c0.3-0.3,0.6-0.4,1-0.4c0.4,0,0.7,0.1,0.9,0.4c0.3,0.3,0.4,0.6,0.4,0.9v1.7   c0,0.4-0.1,0.7-0.4,1L9,190.6c-0.3,0.2-0.6,0.4-1,0.4H4.1c-0.4,0-0.7-0.1-1-0.4l-2.8-2.7c-0.2-0.2-0.4-0.5-0.4-1v-10.5   c0-0.4,0.1-0.7,0.4-1l2.8-2.7c0.3-0.3,0.6-0.4,1-0.4H8c0.4,0,0.7,0.1,1,0.4l2.8,2.7c0.3,0.3,0.4,0.6,0.4,1v1.7   c0,0.4-0.1,0.7-0.4,0.9c-0.3,0.3-0.6,0.4-0.9,0.4c-0.4,0-0.7-0.1-1-0.4c-0.3-0.3-0.4-0.6-0.4-0.9v-0.8c0-0.2-0.1-0.4-0.2-0.5   l-1.5-1.5c-0.1-0.1-0.3-0.2-0.6-0.2H5.1c-0.2,0-0.4,0.1-0.6,0.2l-1.5,1.5c-0.2,0.1-0.2,0.3-0.2,0.5V186.1z"></path>	</g>	<g>		<path class="st0" d="M32.6,175c0.1,0.1,0.2,0.3,0.3,0.5c0.1,0.2,0.1,0.3,0.1,0.5v11.6c0,0.2,0,0.3-0.1,0.5   c-0.1,0.2-0.2,0.3-0.3,0.5l-2.2,2.2c-0.3,0.3-0.6,0.4-1,0.4h-5c-0.4,0-0.7-0.1-1-0.4l-2.3-2.2c-0.2-0.3-0.4-0.6-0.4-0.9v-11.6   c0-0.3,0.1-0.6,0.4-0.9l2.3-2.2c0.3-0.3,0.6-0.4,1-0.4h5c0.4,0,0.7,0.1,1,0.4L32.6,175z M30,187.2c0.2-0.1,0.2-0.3,0.2-0.6v-9.8   c0-0.2-0.1-0.4-0.2-0.6l-1-1c-0.1-0.1-0.3-0.2-0.5-0.2h-3.2c-0.2,0-0.4,0.1-0.5,0.2l-1,1c-0.2,0.1-0.2,0.3-0.2,0.6v9.8   c0,0.2,0.1,0.4,0.2,0.6l1,1c0.1,0.2,0.3,0.2,0.5,0.2h3.2c0.2,0,0.4-0.1,0.5-0.2L30,187.2z"></path>	</g>	<g>		<path class="st0" d="M51,177.4c0-0.1,0-0.2-0.1-0.2c-0.1,0-0.1,0-0.2,0.1l-1.5,1.5c-0.1,0.1-0.2,0.3-0.2,0.5v2.6   c0,0.4-0.1,0.7-0.4,0.9c-0.3,0.2-0.6,0.4-1,0.4c-0.4,0-0.7-0.1-1-0.4c-0.3-0.2-0.4-0.6-0.4-0.9v-2.5c0-0.2-0.1-0.4-0.3-0.5   l-1.5-1.5c-0.1-0.1-0.1-0.1-0.2-0.1c-0.1,0-0.1,0.1-0.1,0.2v12.4c0,0.4-0.1,0.7-0.4,0.9c-0.3,0.3-0.6,0.4-1,0.4   c-0.4,0-0.7-0.1-1-0.4c-0.2-0.3-0.4-0.6-0.4-0.9v-16c0-0.4,0.1-0.7,0.4-0.9c0.2-0.3,0.6-0.4,1-0.4c0.2,0,0.3,0,0.5,0.1   c0.2,0.1,0.3,0.2,0.4,0.3l3,2.9c0.3,0.2,0.5,0.3,0.8,0.3c0.3,0,0.5-0.1,0.8-0.3l3-2.9c0.1-0.1,0.3-0.2,0.5-0.3   c0.2-0.1,0.3-0.1,0.5-0.1c0.4,0,0.7,0.1,0.9,0.4c0.3,0.3,0.4,0.6,0.4,0.9v16c0,0.4-0.1,0.7-0.4,0.9c-0.3,0.3-0.6,0.4-0.9,0.4   c-0.4,0-0.7-0.1-1-0.4c-0.3-0.3-0.4-0.6-0.4-0.9V177.4z"></path>	</g>	<g>		<path class="st0" d="M65,189.7c0,0.4-0.1,0.7-0.4,0.9c-0.3,0.3-0.6,0.4-1,0.4c-0.4,0-0.7-0.1-1-0.4c-0.3-0.3-0.4-0.6-0.4-0.9v-16   c0-0.4,0.1-0.7,0.4-0.9c0.3-0.3,0.6-0.4,1-0.4h7.2c0.4,0,0.7,0.1,1,0.4l2.2,2.2c0.1,0.1,0.2,0.3,0.3,0.5c0.1,0.2,0.1,0.3,0.1,0.5   v4.2c0,0.4-0.1,0.7-0.4,1l-2.2,2.2c-0.3,0.3-0.6,0.4-1,0.4h-4.8c-0.3,0-0.6,0.1-0.8,0.3c-0.2,0.2-0.3,0.4-0.3,0.7V189.7z M70,181   c0.2,0,0.4-0.1,0.5-0.2l1-1c0.2-0.1,0.2-0.3,0.2-0.6v-2.4c0-0.2-0.1-0.4-0.2-0.6l-1-1c-0.1-0.1-0.3-0.2-0.5-0.2h-3.9   c-0.3,0-0.6,0.1-0.8,0.3c-0.2,0.2-0.3,0.4-0.3,0.7v3.8c0,0.3,0.1,0.5,0.3,0.7c0.2,0.2,0.5,0.3,0.8,0.3H70z"></path>	</g>	<g>		<path class="st0" d="M95.3,189.7c0,0.4-0.1,0.7-0.4,0.9c-0.3,0.3-0.6,0.4-0.9,0.4c-0.4,0-0.7-0.1-1-0.4c-0.3-0.3-0.4-0.6-0.4-0.9   v-5c0-0.3-0.1-0.5-0.3-0.7c-0.2-0.2-0.5-0.3-0.8-0.3h-4.6c-0.3,0-0.6,0.1-0.8,0.3c-0.2,0.2-0.3,0.4-0.3,0.7v5   c0,0.4-0.1,0.7-0.4,0.9c-0.3,0.3-0.6,0.4-1,0.4c-0.4,0-0.7-0.1-1-0.4c-0.3-0.3-0.4-0.6-0.4-0.9v-13.2c0-0.4,0.1-0.7,0.4-1l2.8-2.7   c0.3-0.3,0.6-0.4,1-0.4h3.9c0.4,0,0.7,0.1,1,0.4l2.8,2.7c0.3,0.3,0.4,0.6,0.4,1V189.7z M92.6,177.4c0-0.2-0.1-0.4-0.2-0.5   l-1.5-1.5c-0.1-0.1-0.3-0.2-0.6-0.2h-2.1c-0.2,0-0.4,0.1-0.6,0.2l-1.5,1.5c-0.2,0.1-0.2,0.3-0.2,0.5v2.6c0,0.3,0.1,0.5,0.3,0.7   c0.2,0.2,0.5,0.3,0.8,0.3h4.6c0.3,0,0.6-0.1,0.8-0.3c0.2-0.2,0.3-0.4,0.3-0.7V177.4z"></path>	</g>	<g>		<path class="st0" d="M113.2,184.5c0.1,0.1,0.1,0.1,0.1,0.1c0,0,0.1-0.1,0.1-0.2v-10.7c0-0.4,0.1-0.7,0.4-0.9   c0.3-0.3,0.6-0.4,1-0.4c0.4,0,0.7,0.1,0.9,0.4c0.3,0.3,0.4,0.6,0.4,0.9v16c0,0.4-0.1,0.7-0.4,0.9c-0.3,0.3-0.6,0.4-0.9,0.4   c-0.3,0-0.5-0.1-0.7-0.2c-0.2-0.1-0.4-0.3-0.5-0.5l-6.8-11.4c0-0.1-0.1-0.1-0.1-0.1c0,0-0.1,0.1-0.1,0.2v10.7   c0,0.4-0.1,0.7-0.4,0.9c-0.3,0.3-0.6,0.4-1,0.4c-0.4,0-0.7-0.1-1-0.4c-0.3-0.3-0.4-0.6-0.4-0.9v-16c0-0.4,0.1-0.7,0.4-0.9   c0.3-0.3,0.6-0.4,1-0.4c0.5,0,0.9,0.2,1.2,0.7L113.2,184.5z"></path>	</g>	<g>		<path class="st0" d="M136.8,189.7c0,0.4-0.1,0.7-0.4,0.9c-0.3,0.3-0.6,0.4-0.9,0.4c-0.4,0-0.7-0.1-1-0.4c-0.3-0.3-0.4-0.6-0.4-0.9   v-5.6c0-0.3-0.1-0.6-0.3-0.8c-0.2-0.2-0.5-0.3-0.8-0.3h-4.6c-0.3,0-0.6,0.1-0.8,0.3c-0.2,0.2-0.3,0.5-0.3,0.8v5.6   c0,0.4-0.1,0.7-0.4,0.9c-0.3,0.3-0.6,0.4-1,0.4c-0.4,0-0.7-0.1-1-0.4c-0.3-0.3-0.4-0.6-0.4-0.9v-16c0-0.4,0.1-0.7,0.4-0.9   c0.3-0.3,0.6-0.4,1-0.4c0.4,0,0.7,0.1,1,0.4c0.3,0.3,0.4,0.6,0.4,0.9v5.6c0,0.3,0.1,0.6,0.3,0.8c0.2,0.2,0.5,0.3,0.8,0.3h4.6   c0.3,0,0.6-0.1,0.8-0.3c0.2-0.2,0.3-0.5,0.3-0.8v-5.6c0-0.4,0.1-0.7,0.4-0.9c0.3-0.3,0.6-0.4,1-0.4c0.4,0,0.7,0.1,0.9,0.4   c0.3,0.3,0.4,0.6,0.4,0.9V189.7z"></path>	</g>	<g>		<path class="st0" d="M148,191c-0.4,0-0.7-0.1-0.9-0.4c-0.3-0.3-0.4-0.6-0.4-0.9c0-0.4,0.1-0.7,0.4-1c0.3-0.3,0.6-0.4,0.9-0.4h1.1   c0.3,0,0.5-0.1,0.7-0.3c0.2-0.2,0.3-0.4,0.3-0.7v-11.2c0-0.3-0.1-0.5-0.3-0.7c-0.2-0.2-0.5-0.3-0.7-0.3H148   c-0.4,0-0.7-0.1-0.9-0.4c-0.3-0.3-0.4-0.6-0.4-1c0-0.4,0.1-0.7,0.4-0.9c0.3-0.3,0.6-0.4,0.9-0.4h7.1c0.4,0,0.7,0.1,0.9,0.4   c0.3,0.3,0.4,0.6,0.4,0.9c0,0.4-0.1,0.7-0.4,1c-0.3,0.3-0.6,0.4-0.9,0.4H154c-0.3,0-0.6,0.1-0.8,0.3c-0.2,0.2-0.3,0.4-0.3,0.7   v11.2c0,0.3,0.1,0.5,0.3,0.7c0.2,0.2,0.5,0.3,0.8,0.3h1.1c0.4,0,0.7,0.1,0.9,0.4c0.3,0.3,0.4,0.6,0.4,1c0,0.4-0.1,0.7-0.4,0.9   c-0.3,0.3-0.6,0.4-0.9,0.4H148z"></path>	</g>	<g>		<path class="st0" d="M178.4,189.7c0,0.4-0.1,0.7-0.4,0.9c-0.3,0.3-0.6,0.4-0.9,0.4c-0.4,0-0.7-0.1-1-0.4c-0.3-0.3-0.4-0.6-0.4-0.9   v-5c0-0.3-0.1-0.5-0.3-0.7c-0.2-0.2-0.5-0.3-0.8-0.3H170c-0.3,0-0.6,0.1-0.8,0.3c-0.2,0.2-0.3,0.4-0.3,0.7v5   c0,0.4-0.1,0.7-0.4,0.9c-0.3,0.3-0.6,0.4-1,0.4c-0.4,0-0.7-0.1-1-0.4c-0.3-0.3-0.4-0.6-0.4-0.9v-13.2c0-0.4,0.1-0.7,0.4-1l2.8-2.7   c0.3-0.3,0.6-0.4,1-0.4h3.9c0.4,0,0.7,0.1,1,0.4l2.8,2.7c0.3,0.3,0.4,0.6,0.4,1V189.7z M175.7,177.4c0-0.2-0.1-0.4-0.2-0.5   l-1.5-1.5c-0.1-0.1-0.3-0.2-0.6-0.2h-2.1c-0.2,0-0.4,0.1-0.6,0.2l-1.5,1.5c-0.2,0.1-0.2,0.3-0.2,0.5v2.6c0,0.3,0.1,0.5,0.3,0.7   c0.2,0.2,0.5,0.3,0.8,0.3h4.6c0.3,0,0.6-0.1,0.8-0.3c0.2-0.2,0.3-0.4,0.3-0.7V177.4z"></path>	</g>	<g>		<path class="st0" d="M217.3,177.4c0-0.1,0-0.2-0.1-0.2c-0.1,0-0.1,0-0.2,0.1l-1.5,1.5c-0.1,0.1-0.2,0.3-0.2,0.5v2.6   c0,0.4-0.1,0.7-0.4,0.9c-0.3,0.2-0.6,0.4-1,0.4c-0.4,0-0.7-0.1-1-0.4c-0.3-0.2-0.4-0.6-0.4-0.9v-2.5c0-0.2-0.1-0.4-0.3-0.5   l-1.5-1.5c-0.1-0.1-0.1-0.1-0.2-0.1c-0.1,0-0.1,0.1-0.1,0.2v12.4c0,0.4-0.1,0.7-0.4,0.9c-0.3,0.3-0.6,0.4-1,0.4   c-0.4,0-0.7-0.1-1-0.4c-0.2-0.3-0.4-0.6-0.4-0.9v-16c0-0.4,0.1-0.7,0.4-0.9c0.2-0.3,0.6-0.4,1-0.4c0.2,0,0.3,0,0.5,0.1   c0.2,0.1,0.3,0.2,0.4,0.3l3,2.9c0.3,0.2,0.5,0.3,0.8,0.3c0.3,0,0.5-0.1,0.8-0.3l3-2.9c0.1-0.1,0.3-0.2,0.5-0.3   c0.2-0.1,0.3-0.1,0.5-0.1c0.4,0,0.7,0.1,0.9,0.4c0.3,0.3,0.4,0.6,0.4,0.9v16c0,0.4-0.1,0.7-0.4,0.9c-0.3,0.3-0.6,0.4-0.9,0.4   c-0.4,0-0.7-0.1-1-0.4c-0.3-0.3-0.4-0.6-0.4-0.9V177.4z"></path>	</g>	<g>		<path class="st0" d="M228.6,173.7c0-0.4,0.1-0.7,0.4-0.9c0.3-0.3,0.6-0.4,1-0.4h9.5c0.4,0,0.7,0.1,0.9,0.4   c0.3,0.3,0.4,0.6,0.4,0.9c0,0.4-0.1,0.7-0.4,1c-0.3,0.3-0.6,0.4-0.9,0.4h-7.1c-0.3,0-0.6,0.1-0.8,0.3c-0.2,0.2-0.3,0.4-0.3,0.7   v3.2c0,0.3,0.1,0.6,0.3,0.8c0.2,0.2,0.5,0.3,0.8,0.3h5.2c0.4,0,0.7,0.1,1,0.4c0.3,0.2,0.4,0.6,0.4,0.9c0,0.4-0.1,0.7-0.4,0.9   c-0.3,0.3-0.6,0.4-1,0.4h-5.2c-0.3,0-0.6,0.1-0.8,0.3c-0.2,0.2-0.3,0.5-0.3,0.8v3.2c0,0.3,0.1,0.5,0.3,0.7   c0.2,0.2,0.5,0.3,0.8,0.3h7.1c0.4,0,0.7,0.1,0.9,0.4c0.3,0.3,0.4,0.6,0.4,1c0,0.4-0.1,0.7-0.4,0.9c-0.3,0.3-0.6,0.4-0.9,0.4h-9.5   c-0.4,0-0.7-0.1-1-0.4c-0.3-0.3-0.4-0.6-0.4-0.9V173.7z"></path>	</g>	<g>		<path class="st0" d="M256.8,189.7c0,0.4-0.1,0.7-0.4,0.9c-0.3,0.3-0.6,0.4-1,0.4c-0.4,0-0.7-0.1-0.9-0.4c-0.3-0.3-0.4-0.6-0.4-0.9   v-13.6c0-0.3-0.1-0.5-0.3-0.7c-0.2-0.2-0.5-0.3-0.7-0.3h-2.3c-0.4,0-0.7-0.1-1-0.4s-0.4-0.6-0.4-1c0-0.4,0.1-0.7,0.4-0.9   c0.3-0.3,0.6-0.4,1-0.4h9.5c0.4,0,0.7,0.1,0.9,0.4c0.3,0.3,0.4,0.6,0.4,0.9c0,0.4-0.1,0.7-0.4,1c-0.3,0.3-0.6,0.4-0.9,0.4h-2.3   c-0.3,0-0.6,0.1-0.8,0.3c-0.2,0.2-0.3,0.4-0.3,0.7V189.7z"></path>	</g>	<g>		<path class="st0" d="M282.3,189.7c0,0.4-0.1,0.7-0.4,0.9c-0.3,0.3-0.6,0.4-0.9,0.4c-0.4,0-0.7-0.1-1-0.4c-0.3-0.3-0.4-0.6-0.4-0.9   v-5c0-0.3-0.1-0.5-0.3-0.7c-0.2-0.2-0.5-0.3-0.8-0.3h-4.6c-0.3,0-0.6,0.1-0.8,0.3c-0.2,0.2-0.3,0.4-0.3,0.7v5   c0,0.4-0.1,0.7-0.4,0.9c-0.3,0.3-0.6,0.4-1,0.4c-0.4,0-0.7-0.1-1-0.4c-0.3-0.3-0.4-0.6-0.4-0.9v-13.2c0-0.4,0.1-0.7,0.4-1l2.8-2.7   c0.3-0.3,0.6-0.4,1-0.4h3.9c0.4,0,0.7,0.1,1,0.4l2.8,2.7c0.3,0.3,0.4,0.6,0.4,1V189.7z M279.6,177.4c0-0.2-0.1-0.4-0.2-0.5   l-1.5-1.5c-0.1-0.1-0.3-0.2-0.6-0.2h-2.1c-0.2,0-0.4,0.1-0.6,0.2l-1.5,1.5c-0.2,0.1-0.2,0.3-0.2,0.5v2.6c0,0.3,0.1,0.5,0.3,0.7   c0.2,0.2,0.5,0.3,0.8,0.3h4.6c0.3,0,0.6-0.1,0.8-0.3c0.2-0.2,0.3-0.4,0.3-0.7V177.4z"></path>	</g>	<g>		<path class="st0" d="M293.6,187.3c0,0.3,0.1,0.5,0.3,0.7c0.2,0.2,0.5,0.3,0.8,0.3h7.1c0.4,0,0.7,0.1,0.9,0.4   c0.3,0.3,0.4,0.6,0.4,1c0,0.4-0.1,0.7-0.4,0.9c-0.3,0.3-0.6,0.4-0.9,0.4h-9.5c-0.4,0-0.7-0.1-1-0.4c-0.3-0.3-0.4-0.6-0.4-0.9v-16   c0-0.4,0.1-0.7,0.4-0.9c0.3-0.3,0.6-0.4,1-0.4c0.4,0,0.7,0.1,1,0.4c0.3,0.3,0.4,0.6,0.4,0.9V187.3z"></path>	</g>	<g>		<path class="st0" d="M314.4,186.6c0,0.2,0.1,0.4,0.2,0.6l1,1c0.1,0.2,0.3,0.2,0.5,0.2h3.2c0.2,0,0.4-0.1,0.5-0.2l1-1   c0.2-0.1,0.2-0.3,0.2-0.6v-12.9c0-0.4,0.1-0.7,0.4-0.9c0.3-0.3,0.6-0.4,1-0.4c0.4,0,0.7,0.1,0.9,0.4c0.3,0.3,0.4,0.6,0.4,0.9v13.8   c0,0.2,0,0.3-0.1,0.5c-0.1,0.2-0.2,0.3-0.3,0.5l-2.2,2.2c-0.3,0.3-0.6,0.4-1,0.4h-5c-0.4,0-0.7-0.1-1-0.4l-2.3-2.2   c-0.2-0.3-0.4-0.6-0.4-0.9v-13.8c0-0.4,0.1-0.7,0.4-0.9c0.3-0.3,0.6-0.4,1-0.4c0.4,0,0.7,0.1,1,0.4c0.3,0.3,0.4,0.6,0.4,0.9V186.6   z M317.7,169.4c-0.1,0.1-0.3,0.2-0.5,0.3c-0.2,0-0.3,0.1-0.5,0.1c-0.4,0-0.7-0.1-1-0.4c-0.3-0.2-0.4-0.6-0.4-0.9   c0-0.4,0.1-0.7,0.4-0.9l2.1-2.2c0.1-0.1,0.3-0.2,0.5-0.3c0.2-0.1,0.3-0.1,0.5-0.1c0.4,0,0.7,0.1,1,0.4c0.3,0.3,0.4,0.6,0.4,0.9   c0,0.4-0.1,0.7-0.4,1L317.7,169.4z"></path>	</g>	<g>		<path class="st0" d="M336.2,183.6c-0.3,0-0.6,0.1-0.8,0.3c-0.2,0.2-0.3,0.4-0.3,0.7v5c0,0.4-0.1,0.7-0.4,0.9   c-0.3,0.3-0.6,0.4-1,0.4c-0.4,0-0.7-0.1-1-0.4c-0.3-0.3-0.4-0.6-0.4-0.9v-16c0-0.4,0.1-0.7,0.4-0.9c0.3-0.3,0.6-0.4,1-0.4h6.7   c0.4,0,0.7,0.1,1,0.4l2.8,2.7c0.3,0.2,0.4,0.6,0.4,1v3.1c0,0.4-0.1,0.7-0.4,1l-1.1,1c-0.2,0.2-0.3,0.5-0.3,0.7   c0,0.3,0.1,0.5,0.3,0.8l1.1,1c0.3,0.2,0.4,0.6,0.4,0.9v4.7c0,0.4-0.1,0.7-0.4,0.9c-0.3,0.3-0.6,0.4-0.9,0.4c-0.4,0-0.7-0.1-1-0.4   c-0.3-0.3-0.4-0.6-0.4-0.9v-3.8c0-0.2-0.1-0.4-0.2-0.6l-1.5-1.5c-0.1-0.2-0.3-0.2-0.6-0.2H336.2z M341.7,179.2   c0.2-0.1,0.2-0.3,0.2-0.5v-1.3c0-0.2-0.1-0.4-0.2-0.5l-1.5-1.5c-0.1-0.1-0.3-0.2-0.6-0.2h-3.3c-0.3,0-0.6,0.1-0.8,0.3   c-0.2,0.2-0.3,0.4-0.3,0.7v3.8c0,0.3,0.1,0.5,0.3,0.7c0.2,0.2,0.5,0.3,0.8,0.3h3.3c0.2,0,0.4-0.1,0.6-0.2L341.7,179.2z"></path>	</g>	<g>		<path class="st0" d="M362.7,176.8c0-0.2-0.1-0.4-0.2-0.6l-1-1c-0.1-0.1-0.3-0.2-0.5-0.2h-3.2c-0.2,0-0.4,0.1-0.5,0.2l-1,1   c-0.2,0.1-0.2,0.3-0.2,0.6v9.8c0,0.2,0.1,0.4,0.2,0.6l1,1c0.1,0.2,0.3,0.2,0.5,0.2h3.2c0.2,0,0.4-0.1,0.5-0.2l1-1   c0.2-0.1,0.2-0.3,0.2-0.6v-2.5c0-0.3-0.1-0.6-0.3-0.8c-0.2-0.2-0.5-0.3-0.8-0.3H360c-0.4,0-0.7-0.1-1-0.4   c-0.3-0.3-0.4-0.6-0.4-0.9c0-0.4,0.1-0.7,0.4-0.9c0.3-0.2,0.6-0.4,1-0.4h4c0.4,0,0.7,0.1,0.9,0.4c0.3,0.2,0.4,0.6,0.4,0.9v5.8   c0,0.4-0.1,0.7-0.4,1l-2.2,2.2c-0.3,0.3-0.6,0.4-1,0.4h-5c-0.4,0-0.7-0.1-1-0.4l-2.3-2.2c-0.2-0.2-0.4-0.5-0.4-1v-11.6   c0-0.3,0.1-0.6,0.4-0.9l2.3-2.2c0.3-0.3,0.6-0.4,1-0.4h5c0.4,0,0.7,0.1,1,0.4l2.2,2.2c0.1,0.1,0.2,0.3,0.3,0.5   c0.1,0.2,0.1,0.3,0.1,0.5v1.2c0,0.4-0.1,0.7-0.4,0.9c-0.3,0.3-0.6,0.4-0.9,0.4c-0.4,0-0.7-0.1-1-0.4c-0.3-0.3-0.4-0.6-0.4-0.9   V176.8z"></path>	</g>	<g>		<path class="st0" d="M376.5,191c-0.4,0-0.7-0.1-0.9-0.4c-0.3-0.3-0.4-0.6-0.4-0.9c0-0.4,0.1-0.7,0.4-1c0.3-0.3,0.6-0.4,0.9-0.4   h1.1c0.3,0,0.5-0.1,0.7-0.3c0.2-0.2,0.3-0.4,0.3-0.7v-11.2c0-0.3-0.1-0.5-0.3-0.7c-0.2-0.2-0.5-0.3-0.7-0.3h-1.1   c-0.4,0-0.7-0.1-0.9-0.4c-0.3-0.3-0.4-0.6-0.4-1c0-0.4,0.1-0.7,0.4-0.9c0.3-0.3,0.6-0.4,0.9-0.4h7.1c0.4,0,0.7,0.1,0.9,0.4   c0.3,0.3,0.4,0.6,0.4,0.9c0,0.4-0.1,0.7-0.4,1c-0.3,0.3-0.6,0.4-0.9,0.4h-1.1c-0.3,0-0.6,0.1-0.8,0.3c-0.2,0.2-0.3,0.4-0.3,0.7   v11.2c0,0.3,0.1,0.5,0.3,0.7c0.2,0.2,0.5,0.3,0.8,0.3h1.1c0.4,0,0.7,0.1,0.9,0.4c0.3,0.3,0.4,0.6,0.4,1c0,0.4-0.1,0.7-0.4,0.9   c-0.3,0.3-0.6,0.4-0.9,0.4H376.5z"></path>	</g>	<g>		<path class="st0" d="M397.5,186.1c0,0.2,0.1,0.4,0.2,0.5l1.5,1.5c0.1,0.2,0.3,0.2,0.6,0.2h2.1c0.3,0,0.4-0.1,0.6-0.2l1.5-1.5   c0.2-0.1,0.2-0.3,0.2-0.5v-0.8c0-0.4,0.1-0.7,0.4-0.9c0.3-0.3,0.6-0.4,1-0.4c0.4,0,0.7,0.1,0.9,0.4c0.3,0.3,0.4,0.6,0.4,0.9v1.7   c0,0.4-0.1,0.7-0.4,1l-2.8,2.7c-0.3,0.2-0.6,0.4-1,0.4h-3.9c-0.4,0-0.7-0.1-1-0.4l-2.8-2.7c-0.2-0.2-0.4-0.5-0.4-1v-10.5   c0-0.4,0.1-0.7,0.4-1l2.8-2.7c0.3-0.3,0.6-0.4,1-0.4h3.9c0.4,0,0.7,0.1,1,0.4l2.8,2.7c0.3,0.3,0.4,0.6,0.4,1v1.7   c0,0.4-0.1,0.7-0.4,0.9c-0.3,0.3-0.6,0.4-0.9,0.4c-0.4,0-0.7-0.1-1-0.4c-0.3-0.3-0.4-0.6-0.4-0.9v-0.8c0-0.2-0.1-0.4-0.2-0.5   l-1.5-1.5c-0.1-0.1-0.3-0.2-0.6-0.2h-2.1c-0.2,0-0.4,0.1-0.6,0.2l-1.5,1.5c-0.2,0.1-0.2,0.3-0.2,0.5V186.1z"></path>	</g>	<g>		<path class="st0" d="M427.7,189.7c0,0.4-0.1,0.7-0.4,0.9c-0.3,0.3-0.6,0.4-0.9,0.4c-0.4,0-0.7-0.1-1-0.4c-0.3-0.3-0.4-0.6-0.4-0.9   v-5c0-0.3-0.1-0.5-0.3-0.7c-0.2-0.2-0.5-0.3-0.8-0.3h-4.6c-0.3,0-0.6,0.1-0.8,0.3c-0.2,0.2-0.3,0.4-0.3,0.7v5   c0,0.4-0.1,0.7-0.4,0.9c-0.3,0.3-0.6,0.4-1,0.4c-0.4,0-0.7-0.1-1-0.4c-0.3-0.3-0.4-0.6-0.4-0.9v-13.2c0-0.4,0.1-0.7,0.4-1l2.8-2.7   c0.3-0.3,0.6-0.4,1-0.4h3.9c0.4,0,0.7,0.1,1,0.4l2.8,2.7c0.3,0.3,0.4,0.6,0.4,1V189.7z M425.1,177.4c0-0.2-0.1-0.4-0.2-0.5   l-1.5-1.5c-0.1-0.1-0.3-0.2-0.6-0.2h-2.1c-0.2,0-0.4,0.1-0.6,0.2l-1.5,1.5c-0.2,0.1-0.2,0.3-0.2,0.5v2.6c0,0.3,0.1,0.5,0.3,0.7   c0.2,0.2,0.5,0.3,0.8,0.3h4.6c0.3,0,0.6-0.1,0.8-0.3c0.2-0.2,0.3-0.4,0.3-0.7V177.4z"></path>	</g>	<g>		<path class="st0" d="M459.8,189.7c0,0.4-0.1,0.7-0.4,0.9c-0.3,0.3-0.6,0.4-1,0.4c-0.4,0-0.7-0.1-1-0.4c-0.3-0.3-0.4-0.6-0.4-0.9   v-16c0-0.4,0.1-0.7,0.4-0.9c0.3-0.3,0.6-0.4,1-0.4h7.2c0.4,0,0.7,0.1,1,0.4l2.2,2.2c0.1,0.1,0.2,0.3,0.3,0.5   c0.1,0.2,0.1,0.3,0.1,0.5v4.2c0,0.4-0.1,0.7-0.4,1l-2.2,2.2c-0.3,0.3-0.6,0.4-1,0.4h-4.8c-0.3,0-0.6,0.1-0.8,0.3   c-0.2,0.2-0.3,0.4-0.3,0.7V189.7z M464.8,181c0.2,0,0.4-0.1,0.5-0.2l1-1c0.2-0.1,0.2-0.3,0.2-0.6v-2.4c0-0.2-0.1-0.4-0.2-0.6l-1-1   c-0.1-0.1-0.3-0.2-0.5-0.2h-3.9c-0.3,0-0.6,0.1-0.8,0.3c-0.2,0.2-0.3,0.4-0.3,0.7v3.8c0,0.3,0.1,0.5,0.3,0.7   c0.2,0.2,0.5,0.3,0.8,0.3H464.8z"></path>	</g>	<g>		<path class="st0" d="M489.7,175c0.1,0.1,0.2,0.3,0.3,0.5c0.1,0.2,0.1,0.3,0.1,0.5v11.6c0,0.2,0,0.3-0.1,0.5   c-0.1,0.2-0.2,0.3-0.3,0.5l-2.2,2.2c-0.3,0.3-0.6,0.4-1,0.4h-5c-0.4,0-0.7-0.1-1-0.4l-2.3-2.2c-0.2-0.3-0.4-0.6-0.4-0.9v-11.6   c0-0.3,0.1-0.6,0.4-0.9l2.3-2.2c0.3-0.3,0.6-0.4,1-0.4h5c0.4,0,0.7,0.1,1,0.4L489.7,175z M487.1,187.2c0.2-0.1,0.2-0.3,0.2-0.6   v-9.8c0-0.2-0.1-0.4-0.2-0.6l-1-1c-0.1-0.1-0.3-0.2-0.5-0.2h-3.2c-0.2,0-0.4,0.1-0.5,0.2l-1,1c-0.2,0.1-0.2,0.3-0.2,0.6v9.8   c0,0.2,0.1,0.4,0.2,0.6l1,1c0.1,0.2,0.3,0.2,0.5,0.2h3.2c0.2,0,0.4-0.1,0.5-0.2L487.1,187.2z"></path>	</g>	<g>		<path class="st0" d="M502.5,183.6c-0.3,0-0.6,0.1-0.8,0.3c-0.2,0.2-0.3,0.4-0.3,0.7v5c0,0.4-0.1,0.7-0.4,0.9   c-0.3,0.3-0.6,0.4-1,0.4c-0.4,0-0.7-0.1-1-0.4c-0.3-0.3-0.4-0.6-0.4-0.9v-16c0-0.4,0.1-0.7,0.4-0.9c0.3-0.3,0.6-0.4,1-0.4h6.7   c0.4,0,0.7,0.1,1,0.4l2.8,2.7c0.3,0.2,0.4,0.6,0.4,1v3.1c0,0.4-0.1,0.7-0.4,1l-1.1,1c-0.2,0.2-0.3,0.5-0.3,0.7   c0,0.3,0.1,0.5,0.3,0.8l1.1,1c0.3,0.2,0.4,0.6,0.4,0.9v4.7c0,0.4-0.1,0.7-0.4,0.9c-0.3,0.3-0.6,0.4-0.9,0.4c-0.4,0-0.7-0.1-1-0.4   c-0.3-0.3-0.4-0.6-0.4-0.9v-3.8c0-0.2-0.1-0.4-0.2-0.6l-1.5-1.5c-0.1-0.2-0.3-0.2-0.6-0.2H502.5z M507.9,179.2   c0.2-0.1,0.2-0.3,0.2-0.5v-1.3c0-0.2-0.1-0.4-0.2-0.5l-1.5-1.5c-0.1-0.1-0.3-0.2-0.6-0.2h-3.3c-0.3,0-0.6,0.1-0.8,0.3   c-0.2,0.2-0.3,0.4-0.3,0.7v3.8c0,0.3,0.1,0.5,0.3,0.7c0.2,0.2,0.5,0.3,0.8,0.3h3.3c0.2,0,0.4-0.1,0.6-0.2L507.9,179.2z"></path>	</g>	<g>		<path class="st0" d="M526.9,189.7c0,0.4-0.1,0.7-0.4,0.9c-0.3,0.3-0.6,0.4-1,0.4c-0.4,0-0.7-0.1-0.9-0.4c-0.3-0.3-0.4-0.6-0.4-0.9   v-13.6c0-0.3-0.1-0.5-0.3-0.7c-0.2-0.2-0.5-0.3-0.7-0.3h-2.3c-0.4,0-0.7-0.1-1-0.4c-0.3-0.3-0.4-0.6-0.4-1c0-0.4,0.1-0.7,0.4-0.9   c0.3-0.3,0.6-0.4,1-0.4h9.5c0.4,0,0.7,0.1,0.9,0.4c0.3,0.3,0.4,0.6,0.4,0.9c0,0.4-0.1,0.7-0.4,1c-0.3,0.3-0.6,0.4-0.9,0.4H528   c-0.3,0-0.6,0.1-0.8,0.3c-0.2,0.2-0.3,0.4-0.3,0.7V189.7z"></path>	</g>	<g>		<path class="st0" d="M542.9,186.6c0,0.2,0.1,0.4,0.2,0.6l1,1c0.1,0.2,0.3,0.2,0.5,0.2h3.2c0.2,0,0.4-0.1,0.5-0.2l1-1   c0.2-0.1,0.2-0.3,0.2-0.6v-12.9c0-0.4,0.1-0.7,0.4-0.9c0.3-0.3,0.6-0.4,1-0.4c0.4,0,0.7,0.1,0.9,0.4c0.3,0.3,0.4,0.6,0.4,0.9v13.8   c0,0.2,0,0.3-0.1,0.5c-0.1,0.2-0.2,0.3-0.3,0.5l-2.2,2.2c-0.3,0.3-0.6,0.4-1,0.4h-5c-0.4,0-0.7-0.1-1-0.4l-2.3-2.2   c-0.2-0.3-0.4-0.6-0.4-0.9v-13.8c0-0.4,0.1-0.7,0.4-0.9c0.3-0.3,0.6-0.4,1-0.4c0.4,0,0.7,0.1,1,0.4c0.3,0.3,0.4,0.6,0.4,0.9V186.6   z"></path>	</g>	<g>		<path class="st0" d="M570.5,176.8c0-0.2-0.1-0.4-0.2-0.6l-1-1c-0.1-0.1-0.3-0.2-0.5-0.2h-3.2c-0.2,0-0.4,0.1-0.5,0.2l-1,1   c-0.2,0.1-0.2,0.3-0.2,0.6v9.8c0,0.2,0.1,0.4,0.2,0.6l1,1c0.1,0.2,0.3,0.2,0.5,0.2h3.2c0.2,0,0.4-0.1,0.5-0.2l1-1   c0.2-0.1,0.2-0.3,0.2-0.6v-2.5c0-0.3-0.1-0.6-0.3-0.8c-0.2-0.2-0.5-0.3-0.8-0.3h-1.6c-0.4,0-0.7-0.1-1-0.4   c-0.3-0.3-0.4-0.6-0.4-0.9c0-0.4,0.1-0.7,0.4-0.9c0.3-0.2,0.6-0.4,1-0.4h4c0.4,0,0.7,0.1,0.9,0.4c0.3,0.2,0.4,0.6,0.4,0.9v5.8   c0,0.4-0.1,0.7-0.4,1l-2.2,2.2c-0.3,0.3-0.6,0.4-1,0.4h-5c-0.4,0-0.7-0.1-1-0.4l-2.3-2.2c-0.2-0.2-0.4-0.5-0.4-1v-11.6   c0-0.3,0.1-0.6,0.4-0.9l2.3-2.2c0.3-0.3,0.6-0.4,1-0.4h5c0.4,0,0.7,0.1,1,0.4l2.2,2.2c0.1,0.1,0.2,0.3,0.3,0.5   c0.1,0.2,0.1,0.3,0.1,0.5v1.2c0,0.4-0.1,0.7-0.4,0.9c-0.3,0.3-0.6,0.4-0.9,0.4c-0.4,0-0.7-0.1-1-0.4c-0.3-0.3-0.4-0.6-0.4-0.9   V176.8z"></path>	</g>	<g>		<path class="st0" d="M584.5,186.6c0,0.2,0.1,0.4,0.2,0.6l1,1c0.1,0.2,0.3,0.2,0.5,0.2h3.2c0.2,0,0.4-0.1,0.5-0.2l1-1   c0.2-0.1,0.2-0.3,0.2-0.6v-12.9c0-0.4,0.1-0.7,0.4-0.9c0.3-0.3,0.6-0.4,1-0.4c0.4,0,0.7,0.1,0.9,0.4c0.3,0.3,0.4,0.6,0.4,0.9v13.8   c0,0.2,0,0.3-0.1,0.5c-0.1,0.2-0.2,0.3-0.3,0.5l-2.2,2.2c-0.3,0.3-0.6,0.4-1,0.4h-5c-0.4,0-0.7-0.1-1-0.4l-2.3-2.2   c-0.2-0.3-0.4-0.6-0.4-0.9v-13.8c0-0.4,0.1-0.7,0.4-0.9c0.3-0.3,0.6-0.4,1-0.4c0.4,0,0.7,0.1,1,0.4c0.3,0.3,0.4,0.6,0.4,0.9V186.6   z"></path>	</g>	<g>		<path class="st0" d="M602.6,173.7c0-0.4,0.1-0.7,0.4-0.9c0.3-0.3,0.6-0.4,1-0.4h9.5c0.4,0,0.7,0.1,0.9,0.4   c0.3,0.3,0.4,0.6,0.4,0.9c0,0.4-0.1,0.7-0.4,1s-0.6,0.4-0.9,0.4h-7.1c-0.3,0-0.6,0.1-0.8,0.3c-0.2,0.2-0.3,0.4-0.3,0.7v3.2   c0,0.3,0.1,0.6,0.3,0.8c0.2,0.2,0.5,0.3,0.8,0.3h5.2c0.4,0,0.7,0.1,1,0.4c0.3,0.2,0.4,0.6,0.4,0.9c0,0.4-0.1,0.7-0.4,0.9   c-0.3,0.3-0.6,0.4-1,0.4h-5.2c-0.3,0-0.6,0.1-0.8,0.3c-0.2,0.2-0.3,0.5-0.3,0.8v3.2c0,0.3,0.1,0.5,0.3,0.7   c0.2,0.2,0.5,0.3,0.8,0.3h7.1c0.4,0,0.7,0.1,0.9,0.4s0.4,0.6,0.4,1c0,0.4-0.1,0.7-0.4,0.9c-0.3,0.3-0.6,0.4-0.9,0.4h-9.5   c-0.4,0-0.7-0.1-1-0.4c-0.3-0.3-0.4-0.6-0.4-0.9V173.7z"></path>	</g>	<g>		<path class="st0" d="M632.8,176.8c0-0.2-0.1-0.4-0.2-0.6l-1-1c-0.1-0.1-0.3-0.2-0.5-0.2h-3.2c-0.2,0-0.4,0.1-0.5,0.2l-1,1   c-0.2,0.1-0.2,0.3-0.2,0.6v1.8c0,0.2,0.1,0.4,0.2,0.5l1,1c0.2,0.2,0.3,0.2,0.5,0.2h4.1c0.2,0,0.4,0,0.5,0.1   c0.2,0.1,0.3,0.2,0.4,0.3l2.2,2.2c0.3,0.2,0.4,0.6,0.4,1v3.6c0,0.2,0,0.3-0.1,0.5c-0.1,0.2-0.2,0.3-0.3,0.5l-2.2,2.2   c-0.3,0.3-0.6,0.4-1,0.4h-5c-0.4,0-0.7-0.1-1-0.4l-2.3-2.2c-0.2-0.3-0.4-0.6-0.4-0.9v-1.2c0-0.4,0.1-0.7,0.4-0.9   c0.3-0.2,0.6-0.4,1-0.4c0.4,0,0.7,0.1,1,0.4c0.3,0.2,0.4,0.5,0.4,0.9v0.3c0,0.2,0.1,0.4,0.2,0.6l1,1c0.1,0.2,0.3,0.2,0.5,0.2h3.2   c0.2,0,0.4-0.1,0.5-0.2l1-1c0.2-0.1,0.2-0.3,0.2-0.6v-1.8c0-0.2-0.1-0.4-0.2-0.5l-1-1c-0.2-0.2-0.3-0.2-0.5-0.2H627   c-0.2,0-0.4,0-0.5-0.1c-0.2-0.1-0.3-0.2-0.4-0.3l-2.3-2.2c-0.2-0.2-0.4-0.5-0.4-1v-3.6c0-0.3,0.1-0.6,0.4-0.9l2.3-2.2   c0.3-0.3,0.6-0.4,1-0.4h5c0.4,0,0.7,0.1,1,0.4l2.2,2.2c0.1,0.1,0.2,0.3,0.3,0.5c0.1,0.2,0.1,0.3,0.1,0.5v1.2   c0,0.4-0.1,0.7-0.4,0.9c-0.3,0.3-0.6,0.4-0.9,0.4c-0.4,0-0.7-0.1-1-0.4c-0.3-0.3-0.4-0.6-0.4-0.9V176.8z"></path>	</g>	<g>		<path class="st0" d="M656.3,189.7c0,0.4-0.1,0.7-0.4,0.9c-0.3,0.3-0.6,0.4-0.9,0.4c-0.4,0-0.7-0.1-1-0.4c-0.3-0.3-0.4-0.6-0.4-0.9   v-5c0-0.3-0.1-0.5-0.3-0.7c-0.2-0.2-0.5-0.3-0.8-0.3h-4.6c-0.3,0-0.6,0.1-0.8,0.3c-0.2,0.2-0.3,0.4-0.3,0.7v5   c0,0.4-0.1,0.7-0.4,0.9c-0.3,0.3-0.6,0.4-1,0.4c-0.4,0-0.7-0.1-1-0.4c-0.3-0.3-0.4-0.6-0.4-0.9v-13.2c0-0.4,0.1-0.7,0.4-1l2.8-2.7   c0.3-0.3,0.6-0.4,1-0.4h3.9c0.4,0,0.7,0.1,1,0.4l2.8,2.7c0.3,0.3,0.4,0.6,0.4,1V189.7z M653.6,177.4c0-0.2-0.1-0.4-0.2-0.5   l-1.5-1.5c-0.1-0.1-0.3-0.2-0.6-0.2h-2.1c-0.2,0-0.4,0.1-0.6,0.2l-1.5,1.5c-0.2,0.1-0.2,0.3-0.2,0.5v2.6c0,0.3,0.1,0.5,0.3,0.7   c0.2,0.2,0.5,0.3,0.8,0.3h4.6c0.3,0,0.6-0.1,0.8-0.3c0.2-0.2,0.3-0.4,0.3-0.7V177.4z"></path>	</g></g></svg>