<?xml version="1.0" encoding="UTF-8"?>
<svg id="Layer_1" xmlns="http://www.w3.org/2000/svg" version="1.1" viewBox="0 0 656.4 157.1">
  <!-- Generator: Adobe Illustrator 29.5.1, SVG Export Plug-In . SVG Version: 2.1.0 Build 141)  -->
  <defs>
    <style>
      .st0 {
        fill: #f78f25;
      }
    </style>
  </defs>
  <g>
    <path class="st0" d="M642.15,147.4h-128.29c-2.62,0-4.75-2.13-4.75-4.75V14.35c0-2.62,2.13-4.75,4.75-4.75h128.29c2.62,0,4.75,2.13,4.75,4.75v128.29c0,2.62-2.13,4.75-4.75,4.75ZM499.5,4.85v147.39c0,2.62,2.13,4.75,4.75,4.75h147.39c2.62,0,4.75-2.13,4.75-4.75V4.85c0-2.62-2.13-4.75-4.75-4.75h-147.39c-2.62,0-4.75,2.13-4.75,4.75Z"/>
    <g>
      <rect class="st0" x="573.2" y="73.8" width="9.5" height="9.5" rx="4.75" ry="4.75"/>
      <rect class="st0" x="554.2" y="73.8" width="9.5" height="9.5" rx="4.75" ry="4.75"/>
      <rect class="st0" x="592.3" y="73.8" width="9.5" height="9.5" rx="4.75" ry="4.75"/>
      <rect class="st0" x="573.2" y="92.8" width="9.5" height="9.5" rx="4.75" ry="4.75"/>
      <rect class="st0" x="573.2" y="54.7" width="9.5" height="9.5" rx="4.75" ry="4.75"/>
    </g>
  </g>
  <path class="st0" d="M133.9,0H4.75C2.13,0,0,2.13,0,4.75v147.6c0,2.62,2.13,4.75,4.75,4.75h147.4c2.62,0,4.75-2.13,4.75-4.75v-36.5c0-2.62-2.13-4.75-4.75-4.75H50.75c-2.62,0-4.75-2.13-4.75-4.75v-55.6c0-2.62,2.13-4.75,4.75-4.75h55.4c2.62,0,4.75,2.13,4.75,4.75v46.1c0,2.62,2.13,4.75,4.75,4.75h36.5c2.62,0,4.75-2.13,4.75-4.75v-50.85s0-41.25,0-41.25c0-2.62-2.13-4.75-4.75-4.75h-18.25Z"/>
  <path class="st0" d="M166.4,4.82v147.47c0,2.63,2.13,4.77,4.77,4.77h36.47c2.63,0,4.77-2.13,4.77-4.77V50.82c0-2.63,2.13-4.77,4.77-4.77h55.59c2.62,0,4.75,2.13,4.75,4.75v101.49c0,2.63,2.13,4.77,4.77,4.77h36.47c2.63,0,4.77-2.13,4.77-4.77V4.82c0-2.63-2.13-4.77-4.77-4.77h-147.57c-2.63,0-4.77,2.13-4.77,4.77Z"/>
  <path class="st0" d="M333,60.35v91.9c0,2.62,2.13,4.75,4.75,4.75h36.5c2.62,0,4.75-2.13,4.75-4.75v-45.9c0-2.62,2.13-4.75,4.75-4.75h101.5c2.62,0,4.75-2.13,4.75-4.75V4.85c0-2.62-2.13-4.75-4.75-4.75h-147.5c-2.62,0-4.75,2.13-4.75,4.75v36.5c0,2.62,2.13,4.75,4.75,4.75h101.5c2.62,0,4.75,2.13,4.75,4.75h0c0,2.62-2.13,4.75-4.75,4.75h-101.5c-2.62,0-4.75,2.13-4.75,4.75Z"/>
</svg>